<svg width="42" height="42" viewBox="0 0 34 34" fill="none" xmlns="http://www.w3.org/2000/svg">
<g clip-path="url(#clip0_1039_22)">
<rect x="8.75049" y="9.80786" width="5.66015" height="1.62904" transform="rotate(-135.256 8.75049 9.80786)" fill="#FFD706"/>
<rect width="5.69507" height="1.63424" transform="matrix(-0.705419 0.70879 0.70879 0.705419 28.1924 4.65625)" fill="#FFD706"/>
<rect width="5.5508" height="1.68206" transform="matrix(0.711447 -0.70274 -0.70274 -0.711447 5.875 29.3066)" fill="#FFD706"/>
<rect x="28.0889" y="29.2947" width="5.57872" height="1.66644" transform="rotate(-134.04 28.0889 29.2947)" fill="#FFD706"/>
<rect x="34" y="18" width="6" height="2" transform="rotate(180 34 18)" fill="#FFD706"/>
<rect x="6" y="18" width="6" height="2" transform="rotate(180 6 18)" fill="#FFD706"/>
<rect x="16" width="2" height="6" fill="#FFD706"/>
<rect x="16" y="28" width="2" height="6" fill="#FFD706"/>
<g filter="url(#filter0_i_1039_22)">
<circle cx="17" cy="17" r="8" fill="#FFD706"/>
</g>
</g>
<defs>
<filter id="filter0_i_1039_22" x="7" y="9" width="18" height="17" filterUnits="userSpaceOnUse" color-interpolation-filters="sRGB">
<feFlood flood-opacity="0" result="BackgroundImageFix"/>
<feBlend mode="normal" in="SourceGraphic" in2="BackgroundImageFix" result="shape"/>
<feColorMatrix in="SourceAlpha" type="matrix" values="0 0 0 0 0 0 0 0 0 0 0 0 0 0 0 0 0 0 127 0" result="hardAlpha"/>
<feMorphology radius="1" operator="erode" in="SourceAlpha" result="effect1_innerShadow_1039_22"/>
<feOffset dx="-2" dy="1"/>
<feGaussianBlur stdDeviation="2"/>
<feComposite in2="hardAlpha" operator="arithmetic" k2="-1" k3="1"/>
<feColorMatrix type="matrix" values="0 0 0 0 0.325 0 0 0 0 0.215881 0 0 0 0 0.0040625 0 0 0 0.7 0"/>
<feBlend mode="normal" in2="shape" result="effect1_innerShadow_1039_22"/>
</filter>
<clipPath id="clip0_1039_22">
<rect width="34" height="34" fill="white"/>
</clipPath>
</defs>
</svg>
