<svg width="42" height="42" viewBox="0 0 42 42" fill="none" xmlns="http://www.w3.org/2000/svg">
<path d="M14 37.1875C13.6519 37.1875 13.3181 37.3258 13.0719 37.5719C12.8258 37.8181 12.6875 38.1519 12.6875 38.5C12.6875 38.8481 12.8258 39.1819 13.0719 39.4281C13.3181 39.6742 13.6519 39.8125 14 39.8125H28C28.3481 39.8125 28.6819 39.6742 28.9281 39.4281C29.1742 39.1819 29.3125 38.8481 29.3125 38.5C29.3125 38.1519 29.1742 37.8181 28.9281 37.5719C28.6819 37.3258 28.3481 37.1875 28 37.1875H14Z" fill="#A3D8FF"/>
<g opacity="0.5" filter="url(#filter0_i_1074_4)">
<path d="M21.833 3.5C16.31 3.5 11.8335 7.924 11.8335 13.3822C11.8335 14.5897 12.0523 15.7448 12.453 16.8158C11.9744 16.7232 11.488 16.6763 11.0005 16.6758C6.85825 16.6775 3.5 19.9955 3.5 24.0888C3.5 25.0023 3.668 25.879 3.97425 26.6875H37.0842C38.0122 25.1594 38.5019 23.4055 38.5 21.6177C38.5 17.2917 35.6878 13.615 31.7713 12.2762C31.2148 7.3395 26.9762 3.5 21.833 3.5Z" fill="#A3D8FF"/>
</g>
<path d="M3.5 26.6858C3.1519 26.6858 2.81806 26.8241 2.57192 27.0702C2.32578 27.3164 2.1875 27.6502 2.1875 27.9983C2.1875 28.3464 2.32578 28.6802 2.57192 28.9264C2.81806 29.1725 3.1519 29.3108 3.5 29.3108H38.5C38.8481 29.3108 39.1819 29.1725 39.4281 28.9264C39.6742 28.6802 39.8125 28.3464 39.8125 27.9983C39.8125 27.6502 39.6742 27.3164 39.4281 27.0702C39.1819 26.8241 38.8481 26.6858 38.5 26.6858H3.5Z" fill="#A3D8FF"/>
<path opacity="0.5" d="M8.75 31.9375C8.4019 31.9375 8.06806 32.0758 7.82192 32.3219C7.57578 32.5681 7.4375 32.9019 7.4375 33.25C7.4375 33.5981 7.57578 33.9319 7.82192 34.1781C8.06806 34.4242 8.4019 34.5625 8.75 34.5625H33.25C33.5981 34.5625 33.9319 34.4242 34.1781 34.1781C34.4242 33.9319 34.5625 33.5981 34.5625 33.25C34.5625 32.9019 34.4242 32.5681 34.1781 32.3219C33.9319 32.0758 33.5981 31.9375 33.25 31.9375H8.75Z" fill="#CDCDCD"/>
<defs>
<filter id="filter0_i_1074_4" x="-0.5" y="3.5" width="39" height="25.1875" filterUnits="userSpaceOnUse" color-interpolation-filters="sRGB">
<feFlood flood-opacity="0" result="BackgroundImageFix"/>
<feBlend mode="normal" in="SourceGraphic" in2="BackgroundImageFix" result="shape"/>
<feColorMatrix in="SourceAlpha" type="matrix" values="0 0 0 0 0 0 0 0 0 0 0 0 0 0 0 0 0 0 127 0" result="hardAlpha"/>
<feOffset dx="-4" dy="2"/>
<feGaussianBlur stdDeviation="2"/>
<feComposite in2="hardAlpha" operator="arithmetic" k2="-1" k3="1"/>
<feColorMatrix type="matrix" values="0 0 0 0 0 0 0 0 0 0 0 0 0 0 0 0 0 0 0.5 0"/>
<feBlend mode="normal" in2="shape" result="effect1_innerShadow_1074_4"/>
</filter>
</defs>
</svg>
