<svg width="42" height="42" viewBox="0 0 42 42" fill="none" xmlns="http://www.w3.org/2000/svg">
<g filter="url(#filter0_i_1074_11)">
<path d="M12.2913 31.6666C9.88995 31.6666 7.83848 30.8353 6.13692 29.1728C4.43537 27.5103 3.58406 25.4784 3.58301 23.077C3.58301 21.0187 4.20315 19.1846 5.44342 17.5749C6.6837 15.9652 8.30662 14.936 10.3122 14.4874C10.9719 12.0596 12.2913 10.0937 14.2705 8.5895C16.2497 7.08534 18.4927 6.33325 20.9997 6.33325C24.0872 6.33325 26.7065 7.40886 28.8578 9.56009C31.009 11.7113 32.0841 14.3301 32.083 17.4166C33.9038 17.6277 35.4149 18.413 36.6161 19.7726C37.8173 21.1321 38.4174 22.7218 38.4163 24.5416C38.4163 26.5208 37.7239 28.2033 36.339 29.5893C34.9541 30.9752 33.2716 31.6676 31.2913 31.6666H12.2913Z" fill="#A3D8FF"/>
</g>
<path d="M25.9688 28.7188H11.75V27.1563H25.9688C26.6177 27.1563 27.2521 27.0188 27.7917 26.7613C28.3313 26.5037 28.7519 26.1377 29.0002 25.7094C29.2486 25.2812 29.3136 24.8099 29.187 24.3553C29.0603 23.9006 28.7478 23.483 28.2889 23.1552C27.8301 22.8274 27.2454 22.6042 26.6089 22.5138C25.9724 22.4234 25.3126 22.4698 24.7131 22.6472C24.1135 22.8246 23.601 23.125 23.2405 23.5104C22.8799 23.8958 22.6875 24.349 22.6875 24.8125H20.5C20.5 24.0399 20.8207 23.2847 21.4216 22.6423C22.0226 21.9999 22.8767 21.4993 23.8759 21.2036C24.8752 20.9079 25.9748 20.8306 27.0357 20.9813C28.0965 21.132 29.0709 21.5041 29.8357 22.0504C30.6006 22.5967 31.1214 23.2927 31.3324 24.0504C31.5434 24.8082 31.4351 25.5936 31.0212 26.3074C30.6073 27.0211 29.9064 27.6312 29.007 28.0604C28.1077 28.4897 27.0504 28.7188 25.9688 28.7188ZM28.1562 38.875C26.7064 38.8738 25.3164 38.4618 24.2912 37.7295C23.266 36.9972 22.6892 36.0044 22.6875 34.9688H24.875C24.875 35.4323 25.0674 35.8854 25.428 36.2709C25.7885 36.6563 26.301 36.9567 26.9006 37.1341C27.5001 37.3115 28.1599 37.3579 28.7964 37.2675C29.4329 37.177 30.0176 36.9538 30.4764 36.626C30.9353 36.2983 31.2478 35.8806 31.3745 35.426C31.5011 34.9714 31.4361 34.5001 31.1877 34.0718C30.9394 33.6436 30.5188 33.2775 29.9792 33.02C29.4396 32.7625 28.8052 32.625 28.1562 32.625H7.375V31.0625H28.1562C29.6067 31.0625 30.9977 31.4741 32.0232 32.2066C33.0488 32.9392 33.625 33.9327 33.625 34.9688C33.625 36.0048 33.0488 36.9983 32.0232 37.7309C30.9977 38.4635 29.6067 38.875 28.1562 38.875Z" fill="#008DFF"/>
<defs>
<filter id="filter0_i_1074_11" x="-2" y="0" width="42" height="40" filterUnits="userSpaceOnUse" color-interpolation-filters="sRGB">
<feFlood flood-opacity="0" result="BackgroundImageFix"/>
<feBlend mode="normal" in="SourceGraphic" in2="BackgroundImageFix" result="shape"/>
<feColorMatrix in="SourceAlpha" type="matrix" values="0 0 0 0 0 0 0 0 0 0 0 0 0 0 0 0 0 0 127 0" result="hardAlpha"/>
<feOffset dx="-4" dy="2"/>
<feGaussianBlur stdDeviation="2"/>
<feComposite in2="hardAlpha" operator="arithmetic" k2="-1" k3="1"/>
<feColorMatrix type="matrix" values="0 0 0 0 0 0 0 0 0 0 0 0 0 0 0 0 0 0 0.5 0"/>
<feBlend mode="normal" in2="shape" result="effect1_innerShadow_1074_11"/>
</filter>
</defs>
</svg>
