<svg width="42" height="42" viewBox="0 0 42 42" fill="none" xmlns="http://www.w3.org/2000/svg">
<g filter="url(#filter0_i_1043_59)">
<path d="M36.6765 26.8189C37.0335 25.9684 36.0133 25.2439 35.1575 25.6219C33.4467 26.3719 31.5987 26.7581 29.7308 26.7559C22.407 26.7559 16.471 20.9389 16.471 13.7621C16.4703 11.3392 17.1585 8.9661 18.4555 6.9196C18.9525 6.1356 18.3558 5.0506 17.4457 5.2816C10.43 7.07185 5.25 13.3229 5.25 20.7586C5.25 29.5909 12.5563 36.7501 21.5705 36.7501C28.3955 36.7501 34.2405 32.6464 36.6765 26.8189Z" fill="#ADCBDC"/>
</g>
<path d="M27.3194 5.43013C26.3919 4.81063 25.2859 5.91663 25.9036 6.84413L27.0061 8.49788C27.4538 9.16825 27.6928 9.95627 27.6928 10.7624C27.6928 11.5685 27.4538 12.3565 27.0061 13.0269L25.9036 14.6806C25.2859 15.6081 26.3936 16.7141 27.3211 16.0946L28.9731 14.9921C29.6435 14.5444 30.4315 14.3055 31.2376 14.3055C32.0437 14.3055 32.8318 14.5444 33.5021 14.9921L35.1559 16.0946C36.0834 16.7141 37.1894 15.6081 36.5699 14.6806L35.4674 13.0269C35.0197 12.3565 34.7808 11.5685 34.7808 10.7624C34.7808 9.95627 35.0197 9.16825 35.4674 8.49788L36.5699 6.84413C37.1894 5.91663 36.0834 4.81063 35.1541 5.43013L33.5021 6.53263C32.8318 6.98032 32.0437 7.21926 31.2376 7.21926C30.4315 7.21926 29.6435 6.98032 28.9731 6.53263L27.3194 5.43013Z" fill="#FFC806"/>
<defs>
<filter id="filter0_i_1043_59" x="5.25" y="5.25" width="31.5" height="35.5" filterUnits="userSpaceOnUse" color-interpolation-filters="sRGB">
<feFlood flood-opacity="0" result="BackgroundImageFix"/>
<feBlend mode="normal" in="SourceGraphic" in2="BackgroundImageFix" result="shape"/>
<feColorMatrix in="SourceAlpha" type="matrix" values="0 0 0 0 0 0 0 0 0 0 0 0 0 0 0 0 0 0 127 0" result="hardAlpha"/>
<feOffset dy="4"/>
<feGaussianBlur stdDeviation="2"/>
<feComposite in2="hardAlpha" operator="arithmetic" k2="-1" k3="1"/>
<feColorMatrix type="matrix" values="0 0 0 0 0 0 0 0 0 0 0 0 0 0 0 0 0 0 0.5 0"/>
<feBlend mode="normal" in2="shape" result="effect1_innerShadow_1043_59"/>
</filter>
</defs>
</svg>
