<svg width="42" height="42" viewBox="0 0 40 40" fill="none" xmlns="http://www.w3.org/2000/svg">
<g filter="url(#filter0_i_1011_27)">
<path d="M10.8332 33.3334C8.30539 33.3334 6.14595 32.4584 4.35484 30.7084C2.56373 28.9584 1.66762 26.8195 1.6665 24.2917C1.6665 22.1251 2.31928 20.1945 3.62484 18.5001C4.93039 16.8056 6.63873 15.7223 8.74984 15.2501C9.44428 12.6945 10.8332 10.6251 12.9165 9.04175C14.9998 7.45842 17.3609 6.66675 19.9998 6.66675C23.2498 6.66675 26.0071 7.79897 28.2715 10.0634C30.5359 12.3279 31.6676 15.0845 31.6665 18.3334C33.5832 18.5556 35.1737 19.3823 36.4382 20.8134C37.7026 22.2445 38.3343 23.9179 38.3332 25.8334C38.3332 27.9167 37.6043 29.6879 36.1465 31.1467C34.6887 32.6056 32.9176 33.3345 30.8332 33.3334H10.8332Z" fill="#A3D8FF"/>
</g>
<defs>
<filter id="filter0_i_1011_27" x="-2.3335" y="6.66675" width="40.6665" height="30.6667" filterUnits="userSpaceOnUse" color-interpolation-filters="sRGB">
<feFlood flood-opacity="0" result="BackgroundImageFix"/>
<feBlend mode="normal" in="SourceGraphic" in2="BackgroundImageFix" result="shape"/>
<feColorMatrix in="SourceAlpha" type="matrix" values="0 0 0 0 0 0 0 0 0 0 0 0 0 0 0 0 0 0 127 0" result="hardAlpha"/>
<feOffset dx="-4" dy="5"/>
<feGaussianBlur stdDeviation="2"/>
<feComposite in2="hardAlpha" operator="arithmetic" k2="-1" k3="1"/>
<feColorMatrix type="matrix" values="0 0 0 0 0.011875 0 0 0 0 0.0880333 0 0 0 0 0.158333 0 0 0 0.5 0"/>
<feBlend mode="normal" in2="shape" result="effect1_innerShadow_1011_27"/>
</filter>
</defs>
</svg>
