<svg width="42" height="42" viewBox="0 0 45 45" fill="none" xmlns="http://www.w3.org/2000/svg">
<g clip-path="url(#clip0_1039_37)">
<g filter="url(#filter0_i_1039_37)">
<circle cx="35" cy="16" r="8" fill="#FFD706"/>
</g>
<g filter="url(#filter1_i_1039_37)">
<path d="M11.8332 36.3334C9.30539 36.3334 7.14595 35.4584 5.35484 33.7084C3.56373 31.9584 2.66762 29.8195 2.6665 27.2917C2.6665 25.1251 3.31928 23.1945 4.62484 21.5001C5.93039 19.8056 7.63873 18.7223 9.74984 18.2501C10.4443 15.6945 11.8332 13.6251 13.9165 12.0417C15.9998 10.4584 18.3609 9.66675 20.9998 9.66675C24.2498 9.66675 27.0071 10.799 29.2715 13.0634C31.5359 15.3279 32.6676 18.0845 32.6665 21.3334C34.5832 21.5556 36.1737 22.3823 37.4382 23.8134C38.7026 25.2445 39.3343 26.9179 39.3332 28.8334C39.3332 30.9167 38.6043 32.6879 37.1465 34.1467C35.6887 35.6056 33.9176 36.3345 31.8332 36.3334H11.8332Z" fill="#A3D8FF"/>
</g>
<rect width="2.11666" height="4.40884" transform="matrix(0.699469 0.714663 -0.628146 0.778096 43.5728 4.23218)" fill="#FFD706"/>
<rect width="2.00032" height="4.63441" transform="matrix(0.999237 0.0390534 -0.0308658 0.999524 34.1938 0.482666)" fill="#FFD706"/>
<rect width="2.10013" height="4.44308" transform="matrix(0.745968 -0.665982 0.576422 0.817152 24.6616 4.8916)" fill="#FFD706"/>
</g>
<defs>
<filter id="filter0_i_1039_37" x="27" y="8" width="16" height="20" filterUnits="userSpaceOnUse" color-interpolation-filters="sRGB">
<feFlood flood-opacity="0" result="BackgroundImageFix"/>
<feBlend mode="normal" in="SourceGraphic" in2="BackgroundImageFix" result="shape"/>
<feColorMatrix in="SourceAlpha" type="matrix" values="0 0 0 0 0 0 0 0 0 0 0 0 0 0 0 0 0 0 127 0" result="hardAlpha"/>
<feOffset dy="4"/>
<feGaussianBlur stdDeviation="2"/>
<feComposite in2="hardAlpha" operator="arithmetic" k2="-1" k3="1"/>
<feColorMatrix type="matrix" values="0 0 0 0 0.804167 0 0 0 0 0.53075 0 0 0 0 0 0 0 0 0.7 0"/>
<feBlend mode="normal" in2="shape" result="effect1_innerShadow_1039_37"/>
</filter>
<filter id="filter1_i_1039_37" x="-1.3335" y="9.66675" width="40.6665" height="30.6667" filterUnits="userSpaceOnUse" color-interpolation-filters="sRGB">
<feFlood flood-opacity="0" result="BackgroundImageFix"/>
<feBlend mode="normal" in="SourceGraphic" in2="BackgroundImageFix" result="shape"/>
<feColorMatrix in="SourceAlpha" type="matrix" values="0 0 0 0 0 0 0 0 0 0 0 0 0 0 0 0 0 0 127 0" result="hardAlpha"/>
<feOffset dx="-4" dy="5"/>
<feGaussianBlur stdDeviation="2"/>
<feComposite in2="hardAlpha" operator="arithmetic" k2="-1" k3="1"/>
<feColorMatrix type="matrix" values="0 0 0 0 0.011875 0 0 0 0 0.0880333 0 0 0 0 0.158333 0 0 0 0.5 0"/>
<feBlend mode="normal" in2="shape" result="effect1_innerShadow_1039_37"/>
</filter>
<clipPath id="clip0_1039_37">
<rect width="45" height="45" fill="white"/>
</clipPath>
</defs>
</svg>
