<svg width="42" height="42" viewBox="0 0 42 42" fill="none" xmlns="http://www.w3.org/2000/svg">
<g filter="url(#filter0_i_1044_7)">
<path d="M40.9703 18.5697C40.4951 20.1212 39.5428 21.4833 38.2489 22.4621C37.1129 23.3173 35.7611 23.8388 34.3453 23.9683C32.9294 24.0977 31.5054 23.8298 30.2333 23.1947C28.9612 22.5597 27.8912 21.5825 27.1434 20.373C26.3956 19.1635 25.9997 17.7694 26 16.3473C25.995 14.6874 26.5345 13.0717 27.5357 11.748C28.5143 10.4538 29.8761 9.50133 31.4272 9.02606C31.5295 8.99457 31.6384 8.99156 31.7422 9.01734C31.846 9.04312 31.9408 9.09672 32.0165 9.17238C32.0921 9.24803 32.1457 9.34288 32.1715 9.44672C32.1972 9.55056 32.1942 9.65946 32.1627 9.76172C31.8236 10.8839 31.7951 12.0771 32.0804 13.2142C32.3658 14.3513 32.9542 15.3896 33.783 16.2186C34.6118 17.0476 35.6499 17.6361 36.7867 17.9215C37.9236 18.2069 39.1165 18.1785 40.2385 17.8392C40.3407 17.8077 40.4496 17.8047 40.5534 17.8305C40.6572 17.8563 40.752 17.9099 40.8277 17.9855C40.9033 18.0612 40.9569 18.156 40.9827 18.2599C41.0084 18.3637 41.0054 18.4726 40.9739 18.5749L40.9703 18.5697Z" fill="#ADCBDC"/>
</g>
<g filter="url(#filter1_i_1044_7)">
<path d="M10.1667 38.6667C7.63889 38.6667 5.47944 37.7917 3.68833 36.0417C1.89722 34.2917 1.00111 32.1528 1 29.625C1 27.4583 1.65278 25.5278 2.95833 23.8333C4.26389 22.1389 5.97222 21.0556 8.08333 20.5833C8.77778 18.0278 10.1667 15.9583 12.25 14.375C14.3333 12.7917 16.6944 12 19.3333 12C22.5833 12 25.3406 13.1322 27.605 15.3967C29.8694 17.6611 31.0011 20.4178 31 23.6667C32.9167 23.8889 34.5072 24.7156 35.7717 26.1467C37.0361 27.5778 37.6678 29.2511 37.6667 31.1667C37.6667 33.25 36.9378 35.0211 35.48 36.48C34.0222 37.9389 32.2511 38.6678 30.1667 38.6667H10.1667Z" fill="#A3D8FF"/>
</g>
<g filter="url(#filter2_i_1044_7)">
<path d="M40.154 9.08615C40.1528 9.17856 40.1228 9.2683 40.0683 9.34294C40.0139 9.41759 39.9375 9.47346 39.8499 9.50282L39.0665 9.76115C38.8196 9.8458 38.5966 9.98872 38.4165 10.1778C38.2289 10.3607 38.0862 10.5846 37.9999 10.832L37.729 11.6111C37.6982 11.6971 37.6432 11.7723 37.5707 11.8278C37.4938 11.8818 37.4022 11.9109 37.3082 11.9111C37.2152 11.913 37.1243 11.8836 37.0499 11.8278C36.9739 11.7731 36.917 11.6958 36.8874 11.607L36.6249 10.8236C36.5436 10.5774 36.406 10.3535 36.223 10.1698C36.04 9.98604 35.8166 9.84755 35.5707 9.76532L34.7874 9.50698C34.6993 9.47592 34.6224 9.41936 34.5665 9.34448C34.5249 9.28776 34.4973 9.22189 34.4863 9.15237C34.4752 9.08285 34.4809 9.0117 34.503 8.94483C34.525 8.87797 34.5626 8.81734 34.6128 8.76799C34.663 8.71865 34.7243 8.68201 34.7915 8.66115L35.5707 8.40282C35.8194 8.32183 36.0456 8.18345 36.2309 7.99887C36.4162 7.81429 36.5554 7.58869 36.6374 7.34032L36.8957 6.56532C36.921 6.47877 36.9736 6.40274 37.0457 6.34865C37.1174 6.28921 37.2068 6.25547 37.2999 6.25282C37.3947 6.24667 37.4888 6.27313 37.5665 6.32782C37.6464 6.37854 37.7067 6.45495 37.7374 6.54448L37.9999 7.33615C38.0809 7.58484 38.2192 7.81099 38.4038 7.99629C38.5884 8.1816 38.814 8.32086 39.0624 8.40282L39.8415 8.67365C39.9293 8.70109 40.0054 8.75675 40.0582 8.83198C40.1151 8.90507 40.1485 8.99369 40.154 9.08615ZM36.0415 6.1899C36.0403 6.27532 36.0129 6.3583 35.963 6.42762C35.9131 6.49693 35.843 6.54922 35.7624 6.5774L35.204 6.76073C35.0464 6.8163 34.9038 6.90756 34.7874 7.0274C34.6687 7.14478 34.5776 7.28711 34.5207 7.44407L34.3249 8.0024C34.298 8.08024 34.2487 8.14839 34.1832 8.19823C34.1123 8.24797 34.0282 8.27552 33.9415 8.2774C33.8556 8.2759 33.7723 8.24787 33.7029 8.19714C33.6335 8.14642 33.5815 8.07549 33.554 7.99407L33.3707 7.43573C33.3151 7.27814 33.2239 7.13553 33.104 7.01907C32.9867 6.90036 32.8443 6.80927 32.6874 6.7524L32.1249 6.5649C32.0433 6.53865 31.9729 6.48584 31.9249 6.4149C31.8729 6.34667 31.8451 6.26314 31.8457 6.1774C31.8463 6.09056 31.874 6.00607 31.9249 5.93573C31.9769 5.86884 32.0482 5.81942 32.129 5.79407L32.6874 5.60657C32.8443 5.54969 32.9867 5.4586 33.104 5.3399C33.2249 5.22448 33.3161 5.08157 33.3707 4.92323L33.5582 4.37323C33.5832 4.2944 33.631 4.22478 33.6957 4.17323C33.7623 4.12067 33.8442 4.09139 33.929 4.0899C34.015 4.08267 34.1006 4.10631 34.1707 4.15657C34.2424 4.20395 34.2977 4.27235 34.329 4.3524L34.5165 4.92323C34.5728 5.08073 34.664 5.22323 34.7832 5.3399C34.9006 5.4586 35.0429 5.54969 35.1999 5.60657L35.7624 5.8024C35.8408 5.83169 35.9086 5.88393 35.9569 5.9523C36.0052 6.02068 36.0318 6.10202 36.0332 6.18573L36.0415 6.1899Z" fill="#FFD706"/>
</g>
<defs>
<filter id="filter0_i_1044_7" x="26" y="9" width="15" height="19" filterUnits="userSpaceOnUse" color-interpolation-filters="sRGB">
<feFlood flood-opacity="0" result="BackgroundImageFix"/>
<feBlend mode="normal" in="SourceGraphic" in2="BackgroundImageFix" result="shape"/>
<feColorMatrix in="SourceAlpha" type="matrix" values="0 0 0 0 0 0 0 0 0 0 0 0 0 0 0 0 0 0 127 0" result="hardAlpha"/>
<feOffset dy="4"/>
<feGaussianBlur stdDeviation="2"/>
<feComposite in2="hardAlpha" operator="arithmetic" k2="-1" k3="1"/>
<feColorMatrix type="matrix" values="0 0 0 0 0 0 0 0 0 0 0 0 0 0 0 0 0 0 0.5 0"/>
<feBlend mode="normal" in2="shape" result="effect1_innerShadow_1044_7"/>
</filter>
<filter id="filter1_i_1044_7" x="-3" y="12" width="40.667" height="30.6667" filterUnits="userSpaceOnUse" color-interpolation-filters="sRGB">
<feFlood flood-opacity="0" result="BackgroundImageFix"/>
<feBlend mode="normal" in="SourceGraphic" in2="BackgroundImageFix" result="shape"/>
<feColorMatrix in="SourceAlpha" type="matrix" values="0 0 0 0 0 0 0 0 0 0 0 0 0 0 0 0 0 0 127 0" result="hardAlpha"/>
<feOffset dx="-4" dy="5"/>
<feGaussianBlur stdDeviation="2"/>
<feComposite in2="hardAlpha" operator="arithmetic" k2="-1" k3="1"/>
<feColorMatrix type="matrix" values="0 0 0 0 0.011875 0 0 0 0 0.0880333 0 0 0 0 0.158333 0 0 0 0.5 0"/>
<feBlend mode="normal" in2="shape" result="effect1_innerShadow_1044_7"/>
</filter>
<filter id="filter2_i_1044_7" x="31" y="3" width="10" height="12" filterUnits="userSpaceOnUse" color-interpolation-filters="sRGB">
<feFlood flood-opacity="0" result="BackgroundImageFix"/>
<feBlend mode="normal" in="SourceGraphic" in2="BackgroundImageFix" result="shape"/>
<feColorMatrix in="SourceAlpha" type="matrix" values="0 0 0 0 0 0 0 0 0 0 0 0 0 0 0 0 0 0 127 0" result="hardAlpha"/>
<feOffset dy="2"/>
<feGaussianBlur stdDeviation="2"/>
<feComposite in2="hardAlpha" operator="arithmetic" k2="-1" k3="1"/>
<feColorMatrix type="matrix" values="0 0 0 0 0.441667 0 0 0 0 0.286347 0 0 0 0 0.0533681 0 0 0 0.25 0"/>
<feBlend mode="normal" in2="shape" result="effect1_innerShadow_1044_7"/>
</filter>
</defs>
</svg>
