<svg width="42" height="42" viewBox="0 0 52 30" fill="none" xmlns="http://www.w3.org/2000/svg">
<g clip-path="url(#clip0_1039_58)">
<g filter="url(#filter0_i_1039_58)">
<path d="M25.4793 24.1666C23.2675 24.1666 21.378 23.401 19.8108 21.8697C18.2436 20.3385 17.4595 18.4669 17.4585 16.2551C17.4585 14.3593 18.0297 12.6701 19.172 11.1874C20.3144 9.70478 21.8092 8.75686 23.6564 8.34367C24.2641 6.10756 25.4793 4.29679 27.3022 2.91138C29.1252 1.52596 31.1911 0.833252 33.5002 0.833252C36.3439 0.833252 38.7565 1.82395 40.7379 3.80534C42.7193 5.78672 43.7095 8.19881 43.7085 11.0416C45.3856 11.236 46.7773 11.9594 47.8837 13.2116C48.9901 14.4638 49.5428 15.928 49.5418 17.6041C49.5418 19.427 48.904 20.9767 47.6285 22.2533C46.3529 23.5298 44.8032 24.1676 42.9793 24.1666H25.4793Z" fill="#A9A9A9"/>
</g>
<g filter="url(#filter1_i_1039_58)">
<path d="M11.0208 27.3333C8.80903 27.3333 6.91951 26.5677 5.35229 25.0365C3.78507 23.5052 3.00097 21.6337 3 19.4219C3 17.526 3.57118 15.8368 4.71354 14.3542C5.8559 12.8715 7.35069 11.9236 9.19792 11.5104C9.80555 9.2743 11.0208 7.46354 12.8437 6.07813C14.6667 4.69271 16.7326 4 19.0417 4C21.8854 4 24.298 4.99069 26.2794 6.97208C28.2608 8.95347 29.251 11.3656 29.25 14.2083C30.9271 14.4028 32.3188 15.1261 33.4252 16.3783C34.5316 17.6306 35.0843 19.0947 35.0833 20.7708C35.0833 22.5937 34.4456 24.1435 33.17 25.42C31.8944 26.6965 30.3447 27.3343 28.5208 27.3333H11.0208Z" fill="#ADCBDC"/>
</g>
</g>
<defs>
<filter id="filter0_i_1039_58" x="13.4585" y="0.833252" width="36.0835" height="27.3333" filterUnits="userSpaceOnUse" color-interpolation-filters="sRGB">
<feFlood flood-opacity="0" result="BackgroundImageFix"/>
<feBlend mode="normal" in="SourceGraphic" in2="BackgroundImageFix" result="shape"/>
<feColorMatrix in="SourceAlpha" type="matrix" values="0 0 0 0 0 0 0 0 0 0 0 0 0 0 0 0 0 0 127 0" result="hardAlpha"/>
<feOffset dx="-4" dy="5"/>
<feGaussianBlur stdDeviation="2"/>
<feComposite in2="hardAlpha" operator="arithmetic" k2="-1" k3="1"/>
<feColorMatrix type="matrix" values="0 0 0 0 0.011875 0 0 0 0 0.0880333 0 0 0 0 0.158333 0 0 0 0.5 0"/>
<feBlend mode="normal" in2="shape" result="effect1_innerShadow_1039_58"/>
</filter>
<filter id="filter1_i_1039_58" x="-1" y="4" width="36.0835" height="27.3333" filterUnits="userSpaceOnUse" color-interpolation-filters="sRGB">
<feFlood flood-opacity="0" result="BackgroundImageFix"/>
<feBlend mode="normal" in="SourceGraphic" in2="BackgroundImageFix" result="shape"/>
<feColorMatrix in="SourceAlpha" type="matrix" values="0 0 0 0 0 0 0 0 0 0 0 0 0 0 0 0 0 0 127 0" result="hardAlpha"/>
<feOffset dx="-4" dy="5"/>
<feGaussianBlur stdDeviation="2"/>
<feComposite in2="hardAlpha" operator="arithmetic" k2="-1" k3="1"/>
<feColorMatrix type="matrix" values="0 0 0 0 0.011875 0 0 0 0 0.0880333 0 0 0 0 0.158333 0 0 0 0.5 0"/>
<feBlend mode="normal" in2="shape" result="effect1_innerShadow_1039_58"/>
</filter>
<clipPath id="clip0_1039_58">
<rect width="52" height="30" fill="white"/>
</clipPath>
</defs>
</svg>
