<svg width="42" height="42" viewBox="0 0 42 42" fill="none" xmlns="http://www.w3.org/2000/svg">
<g clip-path="url(#clip0_1039_23)">
<rect x="25" y="37.3262" width="2.67" height="6.85" rx="1.335" transform="rotate(-41.532 25 37.3262)" fill="#23A1FD"/>
<rect x="18" y="37.3262" width="2.67" height="6.85" rx="1.335" transform="rotate(-41.532 18 37.3262)" fill="#23A1FD"/>
<rect x="11" y="37.3262" width="2.67453" height="6.8507" rx="1.33727" transform="rotate(-41.532 11 37.3262)" fill="#23A1FD"/>
<g filter="url(#filter0_i_1039_23)">
<path d="M11.8332 33.3334C9.30539 33.3334 7.14595 32.4584 5.35484 30.7084C3.56373 28.9584 2.66762 26.8195 2.6665 24.2917C2.6665 22.1251 3.31928 20.1945 4.62484 18.5001C5.93039 16.8056 7.63873 15.7223 9.74984 15.2501C10.4443 12.6945 11.8332 10.6251 13.9165 9.04175C15.9998 7.45842 18.3609 6.66675 20.9998 6.66675C24.2498 6.66675 27.0071 7.79897 29.2715 10.0634C31.5359 12.3279 32.6676 15.0845 32.6665 18.3334C34.5832 18.5556 36.1737 19.3823 37.4382 20.8134C38.7026 22.2445 39.3343 23.9179 39.3332 25.8334C39.3332 27.9167 38.6043 29.6879 37.1465 31.1467C35.6887 32.6056 33.9176 33.3345 31.8332 33.3334H11.8332Z" fill="#A3D8FF"/>
</g>
</g>
<defs>
<filter id="filter0_i_1039_23" x="-1.3335" y="6.66675" width="40.6665" height="30.6667" filterUnits="userSpaceOnUse" color-interpolation-filters="sRGB">
<feFlood flood-opacity="0" result="BackgroundImageFix"/>
<feBlend mode="normal" in="SourceGraphic" in2="BackgroundImageFix" result="shape"/>
<feColorMatrix in="SourceAlpha" type="matrix" values="0 0 0 0 0 0 0 0 0 0 0 0 0 0 0 0 0 0 127 0" result="hardAlpha"/>
<feOffset dx="-4" dy="5"/>
<feGaussianBlur stdDeviation="2"/>
<feComposite in2="hardAlpha" operator="arithmetic" k2="-1" k3="1"/>
<feColorMatrix type="matrix" values="0 0 0 0 0.011875 0 0 0 0 0.0880333 0 0 0 0 0.158333 0 0 0 0.5 0"/>
<feBlend mode="normal" in2="shape" result="effect1_innerShadow_1039_23"/>
</filter>
<clipPath id="clip0_1039_23">
<rect width="42" height="42" fill="white"/>
</clipPath>
</defs>
</svg>
